<?xml version="1.0" standalone="no"?>
<!DOCTYPE svg PUBLIC "-//W3C//DTD SVG 20010904//EN"
 "http://www.w3.org/TR/2001/REC-SVG-20010904/DTD/svg10.dtd">
<svg version="1.0" xmlns="http://www.w3.org/2000/svg"
 width="2048.000000pt" height="2048.000000pt" viewBox="0 0 2048.000000 2048.000000"
 preserveAspectRatio="xMidYMid meet">
<metadata>
Created by potrace 1.14, written by Peter Selinger 2001-2017
</metadata>
<g transform="translate(0.000000,2048.000000) scale(0.100000,-0.100000)"
fill="#000000" stroke="none">
<path d="M9840 20474 c-439 -24 -704 -48 -1040 -95 -3445 -483 -6431 -2717
-7883 -5900 -463 -1013 -756 -2103 -866 -3219 -39 -391 -45 -538 -45 -1020 0
-583 22 -917 95 -1439 388 -2762 1896 -5250 4174 -6885 718 -515 1530 -950
2350 -1259 958 -360 1883 -559 2970 -639 224 -16 1066 -16 1290 0 546 40 1034
108 1505 208 2481 530 4686 1976 6174 4049 332 463 589 892 851 1420 556 1119
892 2287 1014 3525 39 391 45 538 45 1020 0 482 -6 629 -45 1020 -212 2150
-1100 4172 -2538 5784 -1203 1349 -2717 2347 -4421 2915 -815 272 -1645 435
-2565 501 -146 11 -935 21 -1065 14z m2256 -6961 c-4 -16 -442 -1646 -974
-3623 l-968 -3595 -693 -3 c-656 -2 -692 -1 -687 15 4 13 1867 6933 1937 7196
l10 37 690 0 691 0 -6 -27z m-3756 -3288 l0 -3025 -810 0 -810 0 0 370 c0 359
-1 370 -19 370 -15 0 -31 -22 -60 -81 -66 -132 -129 -217 -241 -330 -214 -216
-453 -332 -768 -374 -513 -68 -1049 114 -1393 472 -232 240 -415 579 -504 932
-75 300 -99 519 -99 911 0 666 99 1097 346 1508 262 436 656 709 1153 798 136
24 413 24 544 0 186 -34 362 -106 522 -212 162 -108 338 -317 436 -518 25 -53
50 -96 54 -96 5 0 9 511 9 1150 l0 1150 820 0 820 0 0 -3025z m6655 1550 c362
-41 634 -117 895 -251 374 -192 626 -472 745 -826 37 -112 75 -308 75 -389 l0
-49 -749 0 -749 0 -6 45 c-12 76 -70 178 -137 238 -130 118 -315 176 -525 164
-279 -16 -453 -128 -454 -292 0 -97 62 -185 168 -239 86 -44 181 -65 746 -166
307 -55 612 -114 678 -131 806 -203 1173 -603 1145 -1247 -15 -341 -135 -620
-373 -871 -343 -361 -852 -574 -1508 -632 -171 -15 -640 -6 -806 15 -730 96
-1242 374 -1544 839 -66 100 -121 217 -159 332 -28 84 -63 243 -69 310 l-3 40
807 3 807 2 16 -57 c62 -213 222 -339 489 -384 108 -18 345 -7 431 21 178 57
258 138 258 260 0 137 -108 230 -343 294 -52 14 -315 64 -585 111 -269 48
-544 100 -610 116 -655 163 -1025 487 -1138 999 -31 140 -30 452 1 597 57 265
165 459 358 643 314 299 790 473 1424 520 165 12 552 4 715 -15z"/>
<path d="M5845 10521 c-359 -103 -555 -521 -532 -1136 15 -393 111 -666 294
-836 117 -108 239 -152 418 -152 92 0 123 5 190 27 330 111 526 501 525 1048
-1 288 -47 505 -153 712 -89 174 -241 301 -408 341 -87 20 -257 18 -334 -4z"/>
</g>
</svg>
